{
	"asset":{
		"generator":"Khronos glTF Blender I/O v4.0.44",
		"version":"2.0"
	},
	"extensionsUsed":[
		"KHR_materials_clearcoat"
	],
	"scene":0,
	"scenes":[
		{
			"name":"Scene",
			"nodes":[
				8
			]
		}
	],
	"nodes":[
		{
			"name":"Black chess side.007_24",
			"rotation":[
				0.7071068286895752,
				-0.7071068286895752,
				0,
				1.1520234011186403e-07
			],
			"scale":[
				0.15126104652881622,
				0.15126104652881622,
				0.15126106142997742
			],
			"translation":[
				4.971888542175293,
				1.033821940422058,
				-5.14659309387207
			]
		},
		{
			"mesh":0,
			"name":"Object_69",
			"translation":[
				7.5065226554870605,
				46.15962600708008,
				-46.622379302978516
			]
		},
		{
			"children":[
				1
			],
			"name":"Black chess side.015_32",
			"rotation":[
				0.7071068286895752,
				-0.7071068286895752,
				0,
				1.1520234011186403e-07
			],
			"scale":[
				0.15126104652881622,
				0.15126104652881622,
				0.15126106142997742
			],
			"translation":[
				6.982151508331299,
				1.1354442834854126,
				-7.052151679992676
			]
		},
		{
			"name":"Black chess side_4",
			"rotation":[
				0.7071068286895752,
				-0.7071068286895752,
				0,
				1.1520234011186403e-07
			],
			"scale":[
				0.15126104652881622,
				0.15126104652881622,
				0.15126106142997742
			],
			"translation":[
				6.977623462677002,
				1.0338231325149536,
				-5.146592617034912
			]
		},
		{
			"name":"Cube_3",
			"translation":[
				0,
				-0.41733357310295105,
				0
			]
		},
		{
			"name":"Plane_2",
			"scale":[
				7.9386305809021,
				46.60742950439453,
				7.9386305809021
			],
			"translation":[
				0,
				0.01020124927163124,
				0
			]
		},
		{
			"children":[
				0,
				2,
				3,
				4,
				5
			],
			"name":"GLTF_SceneRootNode",
			"rotation":[
				0.70710688829422,
				0,
				0,
				0.7071066498756409
			]
		},
		{
			"children":[
				6
			],
			"name":"root"
		},
		{
			"children":[
				7
			],
			"name":"Sketchfab_model",
			"rotation":[
				-0.70710688829422,
				0,
				0,
				0.7071066498756409
			]
		}
	],
	"materials":[
		{
			"doubleSided":true,
			"extensions":{
				"KHR_materials_clearcoat":{
					"clearcoatFactor":0.8088240027427673,
					"clearcoatRoughnessFactor":0.4273221790790558
				}
			},
			"name":"Material.005",
			"pbrMetallicRoughness":{
				"baseColorFactor":[
					0.04296012595295906,
					0.03703853115439415,
					0.03436810150742531,
					1
				],
				"metallicFactor":0,
				"roughnessFactor":0.5
			}
		}
	],
	"meshes":[
		{
			"name":"Object_34",
			"primitives":[
				{
					"attributes":{
						"POSITION":0,
						"NORMAL":1,
						"TEXCOORD_0":2
					},
					"indices":3,
					"material":0
				}
			]
		}
	],
	"accessors":[
		{
			"bufferView":0,
			"componentType":5126,
			"count":14284,
			"max":[
				6.9893622398376465,
				4.288639068603516,
				4.2520751953125
			],
			"min":[
				-11.777453422546387,
				-4.265827178955078,
				-4.30239200592041
			],
			"type":"VEC3"
		},
		{
			"bufferView":1,
			"componentType":5126,
			"count":14284,
			"type":"VEC3"
		},
		{
			"bufferView":2,
			"componentType":5126,
			"count":14284,
			"type":"VEC2"
		},
		{
			"bufferView":3,
			"componentType":5123,
			"count":80430,
			"type":"SCALAR"
		}
	],
	"bufferViews":[
		{
			"buffer":0,
			"byteLength":171408,
			"byteOffset":0,
			"target":34962
		},
		{
			"buffer":0,
			"byteLength":171408,
			"byteOffset":171408,
			"target":34962
		},
		{
			"buffer":0,
			"byteLength":114272,
			"byteOffset":342816,
			"target":34962
		},
		{
			"buffer":0,
			"byteLength":160860,
			"byteOffset":457088,
			"target":34963
		}
	],
	"buffers":[
		{
			"byteLength":617948,
			"uri":"scene.bin"
		}
	]
}
