{
	"asset":{
		"generator":"Khronos glTF Blender I/O v4.0.44",
		"version":"2.0"
	},
	"extensionsUsed":[
		"KHR_materials_clearcoat"
	],
	"scene":0,
	"scenes":[
		{
			"name":"Scene",
			"nodes":[
				0,
				2
			]
		}
	],
	"nodes":[
		{
			"name":"Black chess side.013_30",
			"rotation":[
				0.7071068286895752,
				-0.7071068286895752,
				0,
				1.1520234011186403e-07
			],
			"scale":[
				0.15126104652881622,
				0.15126104652881622,
				0.15126106142997742
			],
			"translation":[
				-7.062379837036133,
				1.0338224172592163,
				-5.146591663360596
			]
		},
		{
			"mesh":0,
			"name":"Object_67",
			"translation":[
				7.2707319259643555,
				-46.78666687011719,
				-46.62238693237305
			]
		},
		{
			"children":[
				1
			],
			"name":"Black chess side.014_31",
			"rotation":[
				0.7071068286895752,
				-0.7071068286895752,
				0,
				1.1520234011186403e-07
			],
			"scale":[
				0.15126104652881622,
				0.15126104652881622,
				0.15126106142997742
			],
			"translation":[
				-7.077000617980957,
				1.0997763872146606,
				-7.052150249481201
			]
		}
	],
	"materials":[
		{
			"doubleSided":true,
			"extensions":{
				"KHR_materials_clearcoat":{
					"clearcoatFactor":0.8088240027427673,
					"clearcoatRoughnessFactor":0.4273221790790558
				}
			},
			"name":"Material.005",
			"pbrMetallicRoughness":{
				"baseColorFactor":[
					0.00424190005287528,
					0.00424190005287528,
					0.00424190005287528,
					1
				],
				"metallicFactor":0,
				"roughnessFactor":0.5
			}
		}
	],
	"meshes":[
		{
			"name":"Object_33",
			"primitives":[
				{
					"attributes":{
						"POSITION":0,
						"NORMAL":1,
						"TEXCOORD_0":2
					},
					"indices":3,
					"material":0
				}
			]
		}
	],
	"accessors":[
		{
			"bufferView":0,
			"componentType":5126,
			"count":14292,
			"max":[
				6.9893598556518555,
				4.288799285888672,
				4.252079486846924
			],
			"min":[
				-11.777456283569336,
				-4.265674591064453,
				-4.3023881912231445
			],
			"type":"VEC3"
		},
		{
			"bufferView":1,
			"componentType":5126,
			"count":14292,
			"type":"VEC3"
		},
		{
			"bufferView":2,
			"componentType":5126,
			"count":14292,
			"type":"VEC2"
		},
		{
			"bufferView":3,
			"componentType":5123,
			"count":80430,
			"type":"SCALAR"
		}
	],
	"bufferViews":[
		{
			"buffer":0,
			"byteLength":171504,
			"byteOffset":0,
			"target":34962
		},
		{
			"buffer":0,
			"byteLength":171504,
			"byteOffset":171504,
			"target":34962
		},
		{
			"buffer":0,
			"byteLength":114336,
			"byteOffset":343008,
			"target":34962
		},
		{
			"buffer":0,
			"byteLength":160860,
			"byteOffset":457344,
			"target":34963
		}
	],
	"buffers":[
		{
			"byteLength":618204,
			"uri":"scene.bin"
		}
	]
}
