{
	"asset":{
		"generator":"Khronos glTF Blender I/O v4.0.44",
		"version":"2.0"
	},
	"extensionsUsed":[
		"KHR_materials_clearcoat"
	],
	"scene":0,
	"scenes":[
		{
			"name":"Scene",
			"nodes":[
				6
			]
		}
	],
	"nodes":[
		{
			"mesh":0,
			"name":"Object_77",
			"translation":[
				-3.770627975463867,
				-5.397587776184082,
				1.1568572521209717
			]
		},
		{
			"children":[
				0
			],
			"name":"pPlane13_36",
			"rotation":[
				0.70710688829422,
				0,
				0,
				0.7071066498756409
			],
			"scale":[
				1.3003952503204346,
				1.3003953695297241,
				1.3003953695297241
			],
			"translation":[
				4.903306484222412,
				1.5043706893920898,
				7.018998146057129
			]
		},
		{
			"name":"White chess side.002_33",
			"rotation":[
				0,
				0,
				-0.7071068286895752,
				0.7071067094802856
			],
			"scale":[
				0.15126104652881622,
				0.15126104652881622,
				0.15126103162765503
			],
			"translation":[
				2.9174182415008545,
				1.4827114343643188,
				6.941378593444824
			]
		},
		{
			"name":"White chess side.011_16",
			"rotation":[
				0,
				0,
				-0.7071068286895752,
				0.7071067094802856
			],
			"scale":[
				0.15126104652881622,
				0.15126104652881622,
				0.15126103162765503
			],
			"translation":[
				6.984317779541016,
				1.0997800827026367,
				6.944230556488037
			]
		},
		{
			"children":[
				1,
				2,
				3
			],
			"name":"GLTF_SceneRootNode",
			"rotation":[
				0.70710688829422,
				0,
				0,
				0.7071066498756409
			]
		},
		{
			"children":[
				4
			],
			"name":"root"
		},
		{
			"children":[
				5
			],
			"name":"Sketchfab_model",
			"rotation":[
				-0.70710688829422,
				0,
				0,
				0.7071066498756409
			]
		}
	],
	"materials":[
		{
			"doubleSided":true,
			"extensions":{
				"KHR_materials_clearcoat":{
					"clearcoatFactor":1,
					"clearcoatRoughnessFactor":0.03211091458797455
				}
			},
			"name":"Chess_White",
			"pbrMetallicRoughness":{
				"baseColorFactor":[
					0.3108130097389221,
					0.2930789887905121,
					0.22268499433994293,
					1
				],
				"metallicFactor":0,
				"roughnessFactor":0.5
			}
		}
	],
	"meshes":[
		{
			"name":"Object_38",
			"primitives":[
				{
					"attributes":{
						"POSITION":0,
						"NORMAL":1,
						"TEXCOORD_0":2
					},
					"indices":3,
					"material":0
				}
			]
		}
	],
	"accessors":[
		{
			"bufferView":0,
			"componentType":5126,
			"count":9144,
			"max":[
				0.49714919924736023,
				0.5392352342605591,
				1.126950979232788
			],
			"min":[
				-0.4759628474712372,
				-0.5668047666549683,
				-1.2119137048721313
			],
			"type":"VEC3"
		},
		{
			"bufferView":1,
			"componentType":5126,
			"count":9144,
			"type":"VEC3"
		},
		{
			"bufferView":2,
			"componentType":5126,
			"count":9144,
			"type":"VEC2"
		},
		{
			"bufferView":3,
			"componentType":5123,
			"count":33024,
			"type":"SCALAR"
		}
	],
	"bufferViews":[
		{
			"buffer":0,
			"byteLength":109728,
			"byteOffset":0,
			"target":34962
		},
		{
			"buffer":0,
			"byteLength":109728,
			"byteOffset":109728,
			"target":34962
		},
		{
			"buffer":0,
			"byteLength":73152,
			"byteOffset":219456,
			"target":34962
		},
		{
			"buffer":0,
			"byteLength":66048,
			"byteOffset":292608,
			"target":34963
		}
	],
	"buffers":[
		{
			"byteLength":358656,
			"uri":"scene.bin"
		}
	]
}
