{
	"asset":{
		"generator":"Khronos glTF Blender I/O v4.0.44",
		"version":"2.0"
	},
	"extensionsUsed":[
		"KHR_materials_clearcoat"
	],
	"scene":0,
	"scenes":[
		{
			"name":"Scene",
			"nodes":[
				38
			]
		}
	],
	"nodes":[
		{
			"name":"Black chess side.001_18",
			"rotation":[
				0.7071068286895752,
				-0.7071068286895752,
				0,
				1.1520234011186403e-07
			],
			"scale":[
				0.15126104652881622,
				0.15126104652881622,
				0.15126106142997742
			],
			"translation":[
				-1.0442990064620972,
				1.508640170097351,
				-7.028036117553711
			]
		},
		{
			"name":"Black chess side.007_24",
			"rotation":[
				0.7071068286895752,
				-0.7071068286895752,
				0,
				1.1520234011186403e-07
			],
			"scale":[
				0.15126104652881622,
				0.15126104652881622,
				0.15126106142997742
			],
			"translation":[
				4.971888542175293,
				1.033821940422058,
				-5.14659309387207
			]
		},
		{
			"name":"Black chess side.008_25",
			"rotation":[
				0.7071068286895752,
				-0.7071068286895752,
				0,
				1.1520234011186403e-07
			],
			"scale":[
				0.15126104652881622,
				0.15126104652881622,
				0.15126106142997742
			],
			"translation":[
				2.966203212738037,
				1.033821940422058,
				-5.14659309387207
			]
		},
		{
			"name":"Black chess side.009_26",
			"rotation":[
				0.7071068286895752,
				-0.7071068286895752,
				0,
				1.1520234011186403e-07
			],
			"scale":[
				0.15126104652881622,
				0.15126104652881622,
				0.15126106142997742
			],
			"translation":[
				0.9604992270469666,
				1.0338218212127686,
				-5.146592617034912
			]
		},
		{
			"name":"Black chess side.010_27",
			"rotation":[
				0.7071068286895752,
				-0.7071068286895752,
				0,
				1.1520234011186403e-07
			],
			"scale":[
				0.15126104652881622,
				0.15126104652881622,
				0.15126106142997742
			],
			"translation":[
				-1.045213222503662,
				1.0338220596313477,
				-5.14659309387207
			]
		},
		{
			"name":"Black chess side.011_28",
			"rotation":[
				0.7071068286895752,
				-0.7071068286895752,
				0,
				1.1520234011186403e-07
			],
			"scale":[
				0.15126104652881622,
				0.15126104652881622,
				0.15126106142997742
			],
			"translation":[
				-3.050917387008667,
				1.0338220596313477,
				-5.146592140197754
			]
		},
		{
			"name":"Black chess side.012_29",
			"rotation":[
				0.7071068286895752,
				-0.7071068286895752,
				0,
				1.1520234011186403e-07
			],
			"scale":[
				0.15126104652881622,
				0.15126104652881622,
				0.15126106142997742
			],
			"translation":[
				-5.056600570678711,
				1.0338220596313477,
				-5.146591663360596
			]
		},
		{
			"name":"Black chess side.013_30",
			"rotation":[
				0.7071068286895752,
				-0.7071068286895752,
				0,
				1.1520234011186403e-07
			],
			"scale":[
				0.15126104652881622,
				0.15126104652881622,
				0.15126106142997742
			],
			"translation":[
				-7.062379837036133,
				1.0338224172592163,
				-5.146591663360596
			]
		},
		{
			"name":"Black chess side.014_31",
			"rotation":[
				0.7071068286895752,
				-0.7071068286895752,
				0,
				1.1520234011186403e-07
			],
			"scale":[
				0.15126104652881622,
				0.15126104652881622,
				0.15126106142997742
			],
			"translation":[
				-7.077000617980957,
				1.0997763872146606,
				-7.052150249481201
			]
		},
		{
			"name":"Black chess side.015_32",
			"rotation":[
				0.7071068286895752,
				-0.7071068286895752,
				0,
				1.1520234011186403e-07
			],
			"scale":[
				0.15126104652881622,
				0.15126104652881622,
				0.15126106142997742
			],
			"translation":[
				6.982151508331299,
				1.1354442834854126,
				-7.052151679992676
			]
		},
		{
			"name":"Black chess side_4",
			"rotation":[
				0.7071068286895752,
				-0.7071068286895752,
				0,
				1.1520234011186403e-07
			],
			"scale":[
				0.15126104652881622,
				0.15126104652881622,
				0.15126106142997742
			],
			"translation":[
				6.977623462677002,
				1.0338231325149536,
				-5.146592617034912
			]
		},
		{
			"mesh":0,
			"name":"Object_10"
		},
		{
			"mesh":1,
			"name":"Object_11"
		},
		{
			"mesh":2,
			"name":"Object_9"
		},
		{
			"children":[
				11,
				12,
				13
			],
			"name":"Cube_3",
			"translation":[
				0,
				-0.41733357310295105,
				0
			]
		},
		{
			"mesh":3,
			"name":"Object_6"
		},
		{
			"mesh":4,
			"name":"Object_7"
		},
		{
			"children":[
				15,
				16
			],
			"name":"Plane_2",
			"scale":[
				7.9386305809021,
				46.60742950439453,
				7.9386305809021
			],
			"translation":[
				0,
				0.01020124927163124,
				0
			]
		},
		{
			"name":"pPlane13.001_37",
			"rotation":[
				0.70710688829422,
				0,
				0,
				0.7071066498756409
			],
			"scale":[
				1.3003952503204346,
				1.3003953695297241,
				1.3003953695297241
			],
			"translation":[
				-4.903324604034424,
				1.5043706893920898,
				7.018998146057129
			]
		},
		{
			"name":"pPlane13.003_38",
			"rotation":[
				0,
				-0.7071068286895752,
				0.7071068286895752,
				1.1520232590100932e-07
			],
			"scale":[
				1.3003956079483032,
				1.3003953695297241,
				1.3003953695297241
			],
			"translation":[
				-4.903324604034424,
				1.5043706893920898,
				-6.996973037719727
			]
		},
		{
			"name":"pPlane13.004_39",
			"rotation":[
				0,
				-0.7071068286895752,
				0.7071068286895752,
				1.1520232590100932e-07
			],
			"scale":[
				1.3003956079483032,
				1.3003953695297241,
				1.3003953695297241
			],
			"translation":[
				-4.903324604034424,
				1.5043706893920898,
				-6.996973037719727
			]
		},
		{
			"name":"pPlane13_36",
			"rotation":[
				0.70710688829422,
				0,
				0,
				0.7071066498756409
			],
			"scale":[
				1.3003952503204346,
				1.3003953695297241,
				1.3003953695297241
			],
			"translation":[
				4.903306484222412,
				1.5043706893920898,
				7.018998146057129
			]
		},
		{
			"name":"White chess side.002_33",
			"rotation":[
				0,
				0,
				-0.7071068286895752,
				0.7071067094802856
			],
			"scale":[
				0.15126104652881622,
				0.15126104652881622,
				0.15126103162765503
			],
			"translation":[
				2.9174182415008545,
				1.4827114343643188,
				6.941378593444824
			]
		},
		{
			"name":"White chess side.003_8",
			"rotation":[
				0,
				0,
				-0.7071068286895752,
				0.7071067094802856
			],
			"scale":[
				0.15126104652881622,
				0.15126104652881622,
				0.15126103162765503
			],
			"translation":[
				-3.006452798843384,
				1.4827114343643188,
				6.941378593444824
			]
		},
		{
			"name":"White chess side.004_9",
			"rotation":[
				0,
				0,
				-0.7071068286895752,
				0.7071067094802856
			],
			"scale":[
				0.15126104652881622,
				0.15126104652881622,
				0.15126103162765503
			],
			"translation":[
				-7.070290565490723,
				1.0338200330734253,
				5.038679122924805
			]
		},
		{
			"name":"White chess side.005_10",
			"rotation":[
				0,
				0,
				-0.7071068286895752,
				0.7071067094802856
			],
			"scale":[
				0.15126104652881622,
				0.15126104652881622,
				0.15126103162765503
			],
			"translation":[
				-5.0645880699157715,
				1.0338199138641357,
				5.038679122924805
			]
		},
		{
			"name":"White chess side.006_11",
			"rotation":[
				0,
				0,
				-0.7071068286895752,
				0.7071067094802856
			],
			"scale":[
				0.15126104652881622,
				0.15126104652881622,
				0.15126103162765503
			],
			"translation":[
				-3.058884620666504,
				1.0338200330734253,
				5.038679122924805
			]
		},
		{
			"name":"White chess side.007_12",
			"rotation":[
				0,
				0,
				-0.7071068286895752,
				0.7071067094802856
			],
			"scale":[
				0.15126104652881622,
				0.15126104652881622,
				0.15126103162765503
			],
			"translation":[
				-1.053181529045105,
				1.0338200330734253,
				5.038679122924805
			]
		},
		{
			"name":"White chess side.008_13",
			"rotation":[
				0,
				0,
				-0.7071068286895752,
				0.7071067094802856
			],
			"scale":[
				0.15126104652881622,
				0.15126104652881622,
				0.15126103162765503
			],
			"translation":[
				2.9582252502441406,
				1.0338199138641357,
				5.038679122924805
			]
		},
		{
			"name":"White chess side.009_14",
			"rotation":[
				0,
				0,
				-0.7071068286895752,
				0.7071067094802856
			],
			"scale":[
				0.15126104652881622,
				0.15126104652881622,
				0.15126103162765503
			],
			"translation":[
				4.963927268981934,
				1.0338200330734253,
				5.038679122924805
			]
		},
		{
			"name":"White chess side.010_15",
			"rotation":[
				0,
				0,
				-0.7071068286895752,
				0.7071067094802856
			],
			"scale":[
				0.15126104652881622,
				0.15126104652881622,
				0.15126103162765503
			],
			"translation":[
				6.969632148742676,
				1.0338199138641357,
				5.038679122924805
			]
		},
		{
			"name":"White chess side.011_16",
			"rotation":[
				0,
				0,
				-0.7071068286895752,
				0.7071067094802856
			],
			"scale":[
				0.15126104652881622,
				0.15126104652881622,
				0.15126103162765503
			],
			"translation":[
				6.984317779541016,
				1.0997800827026367,
				6.944230556488037
			]
		},
		{
			"name":"White chess side.012_17",
			"rotation":[
				0,
				0,
				-0.7071068286895752,
				0.7071067094802856
			],
			"scale":[
				0.15126104652881622,
				0.15126104652881622,
				0.15126103162765503
			],
			"translation":[
				-7.074857711791992,
				1.1354472637176514,
				6.944230556488037
			]
		},
		{
			"name":"White chess side.013_34",
			"rotation":[
				0,
				0,
				-0.7071068286895752,
				0.7071067094802856
			],
			"scale":[
				0.15126104652881622,
				0.15126104652881622,
				0.15126103162765503
			],
			"translation":[
				-3.006452798843384,
				1.4827114343643188,
				-6.987786293029785
			]
		},
		{
			"name":"White chess side.014_35",
			"rotation":[
				0,
				0,
				-0.7071068286895752,
				0.7071067094802856
			],
			"scale":[
				0.15126104652881622,
				0.15126104652881622,
				0.15126103162765503
			],
			"translation":[
				2.9174182415008545,
				1.4827114343643188,
				-6.987786293029785
			]
		},
		{
			"name":"White chess side_1",
			"rotation":[
				0,
				0,
				-0.7071068286895752,
				0.7071067094802856
			],
			"scale":[
				0.15126104652881622,
				0.15126104652881622,
				0.15126103162765503
			],
			"translation":[
				0.9525219798088074,
				1.033820390701294,
				5.038679122924805
			]
		},
		{
			"children":[
				0,
				1,
				2,
				3,
				4,
				5,
				6,
				7,
				8,
				9,
				10,
				14,
				17,
				18,
				19,
				20,
				21,
				22,
				23,
				24,
				25,
				26,
				27,
				28,
				29,
				30,
				31,
				32,
				33,
				34,
				35
			],
			"name":"GLTF_SceneRootNode",
			"rotation":[
				0.70710688829422,
				0,
				0,
				0.7071066498756409
			]
		},
		{
			"children":[
				36
			],
			"name":"root"
		},
		{
			"children":[
				37
			],
			"name":"Sketchfab_model",
			"rotation":[
				-0.70710688829422,
				0,
				0,
				0.7071066498756409
			]
		}
	],
	"materials":[
		{
			"doubleSided":true,
			"name":"Material.006",
			"pbrMetallicRoughness":{}
		},
		{
			"doubleSided":true,
			"name":"Material.007",
			"pbrMetallicRoughness":{
				"baseColorFactor":[
					0.22232376039028168,
					0.19562461972236633,
					0.19562461972236633,
					1
				],
				"roughnessFactor":0.35379159450531006
			}
		},
		{
			"doubleSided":true,
			"name":"Material.004",
			"pbrMetallicRoughness":{
				"baseColorTexture":{
					"index":0
				},
				"metallicFactor":0,
				"metallicRoughnessTexture":{
					"index":1
				}
			}
		},
		{
			"doubleSided":true,
			"extensions":{
				"KHR_materials_clearcoat":{
					"clearcoatFactor":1,
					"clearcoatRoughnessFactor":0.3608820140361786
				}
			},
			"name":"Material.002",
			"pbrMetallicRoughness":{
				"baseColorFactor":[
					0.800000011920929,
					0.800000011920929,
					0.800000011920929,
					1
				],
				"metallicFactor":0,
				"roughnessFactor":0.5
			}
		},
		{
			"doubleSided":true,
			"extensions":{
				"KHR_materials_clearcoat":{
					"clearcoatFactor":1,
					"clearcoatRoughnessFactor":0.11723333597183228
				}
			},
			"name":"Material.003",
			"pbrMetallicRoughness":{
				"baseColorFactor":[
					0.013410599902272224,
					0.013410599902272224,
					0.013410599902272224,
					1
				],
				"metallicFactor":0,
				"roughnessFactor":0.5
			}
		}
	],
	"meshes":[
		{
			"name":"Object_4",
			"primitives":[
				{
					"attributes":{
						"POSITION":0,
						"NORMAL":1,
						"TEXCOORD_0":2
					},
					"indices":3,
					"material":0
				}
			]
		},
		{
			"name":"Object_5",
			"primitives":[
				{
					"attributes":{
						"POSITION":4,
						"NORMAL":5,
						"TEXCOORD_0":6
					},
					"indices":7,
					"material":1
				}
			]
		},
		{
			"name":"Object_3",
			"primitives":[
				{
					"attributes":{
						"POSITION":8,
						"NORMAL":9,
						"TEXCOORD_0":10,
						"TEXCOORD_1":11,
						"TEXCOORD_2":12,
						"TEXCOORD_3":13
					},
					"indices":14,
					"material":2
				}
			]
		},
		{
			"name":"Object_1",
			"primitives":[
				{
					"attributes":{
						"POSITION":15,
						"NORMAL":16,
						"TEXCOORD_0":17
					},
					"indices":18,
					"material":3
				}
			]
		},
		{
			"name":"Object_2",
			"primitives":[
				{
					"attributes":{
						"POSITION":19,
						"NORMAL":20,
						"TEXCOORD_0":21
					},
					"indices":22,
					"material":4
				}
			]
		}
	],
	"textures":[
		{
			"sampler":0,
			"source":0
		},
		{
			"sampler":0,
			"source":1
		}
	],
	"images":[
		{
			"mimeType":"image/jpeg",
			"name":"Material.004_baseColor",
			"uri":"Material_004_baseColor.jpg"
		},
		{
			"mimeType":"image/png",
			"name":"Material.004_metallicRoughness",
			"uri":"Material_004_metallicRoughness.png"
		}
	],
	"accessors":[
		{
			"bufferView":0,
			"componentType":5126,
			"count":240,
			"max":[
				9.276314735412598,
				0.2769223153591156,
				9.276314735412598
			],
			"min":[
				-9.276314735412598,
				0.23681175708770752,
				-9.276314735412598
			],
			"type":"VEC3"
		},
		{
			"bufferView":1,
			"componentType":5126,
			"count":240,
			"type":"VEC3"
		},
		{
			"bufferView":2,
			"componentType":5126,
			"count":240,
			"type":"VEC2"
		},
		{
			"bufferView":3,
			"componentType":5123,
			"count":288,
			"type":"SCALAR"
		},
		{
			"bufferView":4,
			"componentType":5126,
			"count":1564,
			"max":[
				9.277911186218262,
				0.41275179386138916,
				9.277911186218262
			],
			"min":[
				-9.277911186218262,
				0.2769220769405365,
				-9.277911186218262
			],
			"type":"VEC3"
		},
		{
			"bufferView":5,
			"componentType":5126,
			"count":1564,
			"type":"VEC3"
		},
		{
			"bufferView":6,
			"componentType":5126,
			"count":1564,
			"type":"VEC2"
		},
		{
			"bufferView":7,
			"componentType":5123,
			"count":2052,
			"type":"SCALAR"
		},
		{
			"bufferView":8,
			"componentType":5126,
			"count":3682,
			"max":[
				9.486235618591309,
				0.4375052750110626,
				9.486234664916992
			],
			"min":[
				-9.486234664916992,
				-0.7317262887954712,
				-9.486235618591309
			],
			"type":"VEC3"
		},
		{
			"bufferView":9,
			"componentType":5126,
			"count":3682,
			"type":"VEC3"
		},
		{
			"bufferView":10,
			"componentType":5126,
			"count":3682,
			"type":"VEC2"
		},
		{
			"bufferView":11,
			"componentType":5126,
			"count":3682,
			"type":"VEC2"
		},
		{
			"bufferView":12,
			"componentType":5126,
			"count":3682,
			"type":"VEC2"
		},
		{
			"bufferView":13,
			"componentType":5126,
			"count":3682,
			"type":"VEC2"
		},
		{
			"bufferView":14,
			"componentType":5123,
			"count":5100,
			"type":"SCALAR"
		},
		{
			"bufferView":15,
			"componentType":5126,
			"count":2872,
			"max":[
				1.0012612342834473,
				0.0010592977050691843,
				1.0012612342834473
			],
			"min":[
				-1.0012612342834473,
				-0.0015723169781267643,
				-1.0012612342834473
			],
			"type":"VEC3"
		},
		{
			"bufferView":16,
			"componentType":5126,
			"count":2872,
			"type":"VEC3"
		},
		{
			"bufferView":17,
			"componentType":5126,
			"count":2872,
			"type":"VEC2"
		},
		{
			"bufferView":18,
			"componentType":5123,
			"count":4032,
			"type":"SCALAR"
		},
		{
			"bufferView":19,
			"componentType":5126,
			"count":2856,
			"max":[
				1.0012612342834473,
				0.0010592977050691843,
				1.0012612342834473
			],
			"min":[
				-1.0012612342834473,
				-0.0015723169781267643,
				-1.0012612342834473
			],
			"type":"VEC3"
		},
		{
			"bufferView":20,
			"componentType":5126,
			"count":2856,
			"type":"VEC3"
		},
		{
			"bufferView":21,
			"componentType":5126,
			"count":2856,
			"type":"VEC2"
		},
		{
			"bufferView":22,
			"componentType":5123,
			"count":4032,
			"type":"SCALAR"
		}
	],
	"bufferViews":[
		{
			"buffer":0,
			"byteLength":2880,
			"byteOffset":0,
			"target":34962
		},
		{
			"buffer":0,
			"byteLength":2880,
			"byteOffset":2880,
			"target":34962
		},
		{
			"buffer":0,
			"byteLength":1920,
			"byteOffset":5760,
			"target":34962
		},
		{
			"buffer":0,
			"byteLength":576,
			"byteOffset":7680,
			"target":34963
		},
		{
			"buffer":0,
			"byteLength":18768,
			"byteOffset":8256,
			"target":34962
		},
		{
			"buffer":0,
			"byteLength":18768,
			"byteOffset":27024,
			"target":34962
		},
		{
			"buffer":0,
			"byteLength":12512,
			"byteOffset":45792,
			"target":34962
		},
		{
			"buffer":0,
			"byteLength":4104,
			"byteOffset":58304,
			"target":34963
		},
		{
			"buffer":0,
			"byteLength":44184,
			"byteOffset":62408,
			"target":34962
		},
		{
			"buffer":0,
			"byteLength":44184,
			"byteOffset":106592,
			"target":34962
		},
		{
			"buffer":0,
			"byteLength":29456,
			"byteOffset":150776,
			"target":34962
		},
		{
			"buffer":0,
			"byteLength":29456,
			"byteOffset":180232,
			"target":34962
		},
		{
			"buffer":0,
			"byteLength":29456,
			"byteOffset":209688,
			"target":34962
		},
		{
			"buffer":0,
			"byteLength":29456,
			"byteOffset":239144,
			"target":34962
		},
		{
			"buffer":0,
			"byteLength":10200,
			"byteOffset":268600,
			"target":34963
		},
		{
			"buffer":0,
			"byteLength":34464,
			"byteOffset":278800,
			"target":34962
		},
		{
			"buffer":0,
			"byteLength":34464,
			"byteOffset":313264,
			"target":34962
		},
		{
			"buffer":0,
			"byteLength":22976,
			"byteOffset":347728,
			"target":34962
		},
		{
			"buffer":0,
			"byteLength":8064,
			"byteOffset":370704,
			"target":34963
		},
		{
			"buffer":0,
			"byteLength":34272,
			"byteOffset":378768,
			"target":34962
		},
		{
			"buffer":0,
			"byteLength":34272,
			"byteOffset":413040,
			"target":34962
		},
		{
			"buffer":0,
			"byteLength":22848,
			"byteOffset":447312,
			"target":34962
		},
		{
			"buffer":0,
			"byteLength":8064,
			"byteOffset":470160,
			"target":34963
		}
	],
	"samplers":[
		{
			"magFilter":9729,
			"minFilter":9987
		}
	],
	"buffers":[
		{
			"byteLength":478224,
			"uri":"scene.bin"
		}
	]
}
