{
	"asset":{
		"generator":"Khronos glTF Blender I/O v4.0.44",
		"version":"2.0"
	},
	"extensionsUsed":[
		"KHR_materials_clearcoat"
	],
	"scene":0,
	"scenes":[
		{
			"name":"Scene",
			"nodes":[
				0,
				1,
				2,
				3,
				5,
				6
			]
		}
	],
	"nodes":[
		{
			"name":"Plane.001_5",
			"rotation":[
				0,
				0,
				-0.7071067690849304,
				0.7071068286895752
			],
			"scale":[
				0.22414207458496094,
				0.22414207458496094,
				0.22414207458496094
			],
			"translation":[
				0.9522873163223267,
				2.1773176193237305,
				6.956207752227783
			]
		},
		{
			"name":"White chess side.001_6",
			"rotation":[
				0,
				0,
				-0.7071068286895752,
				0.7071067094802856
			],
			"scale":[
				0.15126104652881622,
				0.15126104652881622,
				0.15126103162765503
			],
			"translation":[
				-0.9936704635620117,
				1.9784141778945923,
				6.920119762420654
			]
		},
		{
			"name":"White chess side.007_12",
			"rotation":[
				0,
				0,
				-0.7071068286895752,
				0.7071067094802856
			],
			"scale":[
				0.15126104652881622,
				0.15126104652881622,
				0.15126103162765503
			],
			"translation":[
				-1.053181529045105,
				1.0338200330734253,
				5.038679122924805
			]
		},
		{
			"name":"White chess side.010_15",
			"rotation":[
				0,
				0,
				-0.7071068286895752,
				0.7071067094802856
			],
			"scale":[
				0.15126104652881622,
				0.15126104652881622,
				0.15126103162765503
			],
			"translation":[
				6.969632148742676,
				1.0338199138641357,
				5.038679122924805
			]
		},
		{
			"mesh":0,
			"name":"Object_71",
			"translation":[
				9.802336692810059,
				-19.287302017211914,
				-45.89006042480469
			]
		},
		{
			"children":[
				4
			],
			"name":"White chess side.002_33",
			"rotation":[
				0,
				0,
				-0.7071068286895752,
				0.7071067094802856
			],
			"scale":[
				0.15126104652881622,
				0.15126104652881622,
				0.15126103162765503
			],
			"translation":[
				2.9174182415008545,
				1.4827114343643188,
				6.941378593444824
			]
		},
		{
			"name":"pPlane13_36",
			"rotation":[
				0.70710688829422,
				0,
				0,
				0.7071066498756409
			],
			"scale":[
				1.3003952503204346,
				1.3003953695297241,
				1.3003953695297241
			],
			"translation":[
				4.903306484222412,
				1.5043706893920898,
				7.018998146057129
			]
		}
	],
	"materials":[
		{
			"doubleSided":true,
			"extensions":{
				"KHR_materials_clearcoat":{
					"clearcoatFactor":1,
					"clearcoatRoughnessFactor":0.03211091458797455
				}
			},
			"name":"Chess_White",
			"pbrMetallicRoughness":{
				"baseColorFactor":[
					0.3108130097389221,
					0.2930789887905121,
					0.22268499433994293,
					1
				],
				"metallicFactor":0,
				"roughnessFactor":0.5
			}
		}
	],
	"meshes":[
		{
			"name":"Object_35",
			"primitives":[
				{
					"attributes":{
						"POSITION":0,
						"NORMAL":1,
						"TEXCOORD_0":2
					},
					"indices":3,
					"material":0
				}
			]
		}
	],
	"accessors":[
		{
			"bufferView":0,
			"componentType":5126,
			"count":15073,
			"max":[
				9.623040199279785,
				4.226701736450195,
				4.226701736450195
			],
			"min":[
				-10.129584312438965,
				-4.226701736450195,
				-4.226701736450195
			],
			"type":"VEC3"
		},
		{
			"bufferView":1,
			"componentType":5126,
			"count":15073,
			"type":"VEC3"
		},
		{
			"bufferView":2,
			"componentType":5126,
			"count":15073,
			"type":"VEC2"
		},
		{
			"bufferView":3,
			"componentType":5123,
			"count":78210,
			"type":"SCALAR"
		}
	],
	"bufferViews":[
		{
			"buffer":0,
			"byteLength":180876,
			"byteOffset":0,
			"target":34962
		},
		{
			"buffer":0,
			"byteLength":180876,
			"byteOffset":180876,
			"target":34962
		},
		{
			"buffer":0,
			"byteLength":120584,
			"byteOffset":361752,
			"target":34962
		},
		{
			"buffer":0,
			"byteLength":156420,
			"byteOffset":482336,
			"target":34963
		}
	],
	"buffers":[
		{
			"byteLength":638756,
			"uri":"scene.bin"
		}
	]
}
