{
	"asset":{
		"generator":"Khronos glTF Blender I/O v4.0.44",
		"version":"2.0"
	},
	"extensionsUsed":[
		"KHR_materials_clearcoat"
	],
	"scene":0,
	"scenes":[
		{
			"name":"Scene",
			"nodes":[
				0,
				1,
				3
			]
		}
	],
	"nodes":[
		{
			"name":"White chess side_1",
			"rotation":[
				0,
				0,
				-0.7071068286895752,
				0.7071067094802856
			],
			"scale":[
				0.15126104652881622,
				0.15126104652881622,
				0.15126103162765503
			],
			"translation":[
				0.9525219798088074,
				1.033820390701294,
				5.038679122924805
			]
		},
		{
			"name":"Plane.001_5",
			"rotation":[
				0,
				0,
				-0.7071067690849304,
				0.7071068286895752
			],
			"scale":[
				0.22414207458496094,
				0.22414207458496094,
				0.22414207458496094
			],
			"translation":[
				0.9522873163223267,
				2.1773176193237305,
				6.956207752227783
			]
		},
		{
			"mesh":0,
			"name":"Object_17",
			"translation":[
				13.079466819763184,
				6.569243431091309,
				-45.749515533447266
			]
		},
		{
			"children":[
				2
			],
			"name":"White chess side.001_6",
			"rotation":[
				0,
				0,
				-0.7071068286895752,
				0.7071067094802856
			],
			"scale":[
				0.15126104652881622,
				0.15126104652881622,
				0.15126103162765503
			],
			"translation":[
				-0.9936704635620117,
				1.9784141778945923,
				6.920119762420654
			]
		}
	],
	"materials":[
		{
			"doubleSided":true,
			"extensions":{
				"KHR_materials_clearcoat":{
					"clearcoatFactor":1,
					"clearcoatRoughnessFactor":0.03211091458797455
				}
			},
			"name":"Chess_White",
			"pbrMetallicRoughness":{
				"baseColorFactor":[
					0.3108130097389221,
					0.2930789887905121,
					0.22268499433994293,
					1
				],
				"metallicFactor":0,
				"roughnessFactor":0.5
			}
		}
	],
	"meshes":[
		{
			"name":"Object_8",
			"primitives":[
				{
					"attributes":{
						"POSITION":0,
						"NORMAL":1,
						"TEXCOORD_0":2
					},
					"indices":3,
					"material":0
				}
			]
		}
	],
	"accessors":[
		{
			"bufferView":0,
			"componentType":5126,
			"count":20405,
			"max":[
				12.837388038635254,
				4.45208215713501,
				4.452081680297852
			],
			"min":[
				-8.344746589660645,
				-4.452081680297852,
				-4.452081680297852
			],
			"type":"VEC3"
		},
		{
			"bufferView":1,
			"componentType":5126,
			"count":20405,
			"type":"VEC3"
		},
		{
			"bufferView":2,
			"componentType":5126,
			"count":20405,
			"type":"VEC2"
		},
		{
			"bufferView":3,
			"componentType":5123,
			"count":109152,
			"type":"SCALAR"
		}
	],
	"bufferViews":[
		{
			"buffer":0,
			"byteLength":244860,
			"byteOffset":0,
			"target":34962
		},
		{
			"buffer":0,
			"byteLength":244860,
			"byteOffset":244860,
			"target":34962
		},
		{
			"buffer":0,
			"byteLength":163240,
			"byteOffset":489720,
			"target":34962
		},
		{
			"buffer":0,
			"byteLength":218304,
			"byteOffset":652960,
			"target":34963
		}
	],
	"buffers":[
		{
			"byteLength":871264,
			"uri":"scene.bin"
		}
	]
}
