{
	"asset":{
		"generator":"Khronos glTF Blender I/O v4.0.44",
		"version":"2.0"
	},
	"extensionsUsed":[
		"KHR_materials_clearcoat"
	],
	"scene":0,
	"scenes":[
		{
			"name":"Scene",
			"nodes":[
				10
			]
		}
	],
	"nodes":[
		{
			"name":"Black chess side.014_31",
			"rotation":[
				0.7071068286895752,
				-0.7071068286895752,
				0,
				1.1520234011186403e-07
			],
			"scale":[
				0.15126104652881622,
				0.15126104652881622,
				0.15126106142997742
			],
			"translation":[
				-7.077000617980957,
				1.0997763872146606,
				-7.052150249481201
			]
		},
		{
			"name":"Black chess side.015_32",
			"rotation":[
				0.7071068286895752,
				-0.7071068286895752,
				0,
				1.1520234011186403e-07
			],
			"scale":[
				0.15126104652881622,
				0.15126104652881622,
				0.15126106142997742
			],
			"translation":[
				6.982151508331299,
				1.1354442834854126,
				-7.052151679992676
			]
		},
		{
			"name":"Cube_3",
			"translation":[
				0,
				-0.41733357310295105,
				0
			]
		},
		{
			"name":"Plane_2",
			"scale":[
				7.9386305809021,
				46.60742950439453,
				7.9386305809021
			],
			"translation":[
				0,
				0.01020124927163124,
				0
			]
		},
		{
			"mesh":0,
			"name":"Object_81",
			"translation":[
				-3.770639181137085,
				-5.380649566650391,
				1.1568562984466553
			]
		},
		{
			"children":[
				4
			],
			"name":"pPlane13.003_38",
			"rotation":[
				0,
				-0.7071068286895752,
				0.7071068286895752,
				1.1520232590100932e-07
			],
			"scale":[
				1.3003956079483032,
				1.3003953695297241,
				1.3003953695297241
			],
			"translation":[
				-4.903324604034424,
				1.5043706893920898,
				-6.996973037719727
			]
		},
		{
			"name":"pPlane13.004_39",
			"rotation":[
				0,
				-0.7071068286895752,
				0.7071068286895752,
				1.1520232590100932e-07
			],
			"scale":[
				1.3003956079483032,
				1.3003953695297241,
				1.3003953695297241
			],
			"translation":[
				-4.903324604034424,
				1.5043706893920898,
				-6.996973037719727
			]
		},
		{
			"name":"White chess side.013_34",
			"rotation":[
				0,
				0,
				-0.7071068286895752,
				0.7071067094802856
			],
			"scale":[
				0.15126104652881622,
				0.15126104652881622,
				0.15126103162765503
			],
			"translation":[
				-3.006452798843384,
				1.4827114343643188,
				-6.987786293029785
			]
		},
		{
			"children":[
				0,
				1,
				2,
				3,
				5,
				6,
				7
			],
			"name":"GLTF_SceneRootNode",
			"rotation":[
				0.70710688829422,
				0,
				0,
				0.7071066498756409
			]
		},
		{
			"children":[
				8
			],
			"name":"root"
		},
		{
			"children":[
				9
			],
			"name":"Sketchfab_model",
			"rotation":[
				-0.70710688829422,
				0,
				0,
				0.7071066498756409
			]
		}
	],
	"materials":[
		{
			"doubleSided":true,
			"extensions":{
				"KHR_materials_clearcoat":{
					"clearcoatFactor":0.8088240027427673,
					"clearcoatRoughnessFactor":0.4273221790790558
				}
			},
			"name":"Material.005",
			"pbrMetallicRoughness":{
				"baseColorFactor":[
					0.04296012595295906,
					0.03703853115439415,
					0.03436810150742531,
					1
				],
				"metallicFactor":0,
				"roughnessFactor":0.5
			}
		}
	],
	"meshes":[
		{
			"name":"Object_40",
			"primitives":[
				{
					"attributes":{
						"POSITION":0,
						"NORMAL":1,
						"TEXCOORD_0":2
					},
					"indices":3,
					"material":0
				}
			]
		}
	],
	"accessors":[
		{
			"bufferView":0,
			"componentType":5126,
			"count":9145,
			"max":[
				0.49714919924736023,
				0.5392352938652039,
				1.126950979232788
			],
			"min":[
				-0.4759628474712372,
				-0.566804826259613,
				-1.211913824081421
			],
			"type":"VEC3"
		},
		{
			"bufferView":1,
			"componentType":5126,
			"count":9145,
			"type":"VEC3"
		},
		{
			"bufferView":2,
			"componentType":5126,
			"count":9145,
			"type":"VEC2"
		},
		{
			"bufferView":3,
			"componentType":5123,
			"count":33024,
			"type":"SCALAR"
		}
	],
	"bufferViews":[
		{
			"buffer":0,
			"byteLength":109740,
			"byteOffset":0,
			"target":34962
		},
		{
			"buffer":0,
			"byteLength":109740,
			"byteOffset":109740,
			"target":34962
		},
		{
			"buffer":0,
			"byteLength":73160,
			"byteOffset":219480,
			"target":34962
		},
		{
			"buffer":0,
			"byteLength":66048,
			"byteOffset":292640,
			"target":34963
		}
	],
	"buffers":[
		{
			"byteLength":358688,
			"uri":"scene.bin"
		}
	]
}
