{
	"asset":{
		"generator":"Khronos glTF Blender I/O v4.0.44",
		"version":"2.0"
	},
	"extensionsUsed":[
		"KHR_materials_clearcoat"
	],
	"scene":0,
	"scenes":[
		{
			"name":"Scene",
			"nodes":[
				12
			]
		}
	],
	"nodes":[
		{
			"name":"Black chess side.007_24",
			"rotation":[
				0.7071068286895752,
				-0.7071068286895752,
				0,
				1.1520234011186403e-07
			],
			"scale":[
				0.15126104652881622,
				0.15126104652881622,
				0.15126106142997742
			],
			"translation":[
				4.971888542175293,
				1.033821940422058,
				-5.14659309387207
			]
		},
		{
			"name":"Black chess side.008_25",
			"rotation":[
				0.7071068286895752,
				-0.7071068286895752,
				0,
				1.1520234011186403e-07
			],
			"scale":[
				0.15126104652881622,
				0.15126104652881622,
				0.15126106142997742
			],
			"translation":[
				2.966203212738037,
				1.033821940422058,
				-5.14659309387207
			]
		},
		{
			"name":"Black chess side_4",
			"rotation":[
				0.7071068286895752,
				-0.7071068286895752,
				0,
				1.1520234011186403e-07
			],
			"scale":[
				0.15126104652881622,
				0.15126104652881622,
				0.15126106142997742
			],
			"translation":[
				6.977623462677002,
				1.0338231325149536,
				-5.146592617034912
			]
		},
		{
			"name":"Cube_3",
			"translation":[
				0,
				-0.41733357310295105,
				0
			]
		},
		{
			"name":"Plane_2",
			"scale":[
				7.9386305809021,
				46.60742950439453,
				7.9386305809021
			],
			"translation":[
				0,
				0.01020124927163124,
				0
			]
		},
		{
			"name":"pPlane13_36",
			"rotation":[
				0.70710688829422,
				0,
				0,
				0.7071066498756409
			],
			"scale":[
				1.3003952503204346,
				1.3003953695297241,
				1.3003953695297241
			],
			"translation":[
				4.903306484222412,
				1.5043706893920898,
				7.018998146057129
			]
		},
		{
			"name":"White chess side.009_14",
			"rotation":[
				0,
				0,
				-0.7071068286895752,
				0.7071067094802856
			],
			"scale":[
				0.15126104652881622,
				0.15126104652881622,
				0.15126103162765503
			],
			"translation":[
				4.963927268981934,
				1.0338200330734253,
				5.038679122924805
			]
		},
		{
			"mesh":0,
			"name":"Object_35",
			"translation":[
				6.83467960357666,
				-46.076847076416016,
				-33.31114959716797
			]
		},
		{
			"children":[
				7
			],
			"name":"White chess side.010_15",
			"rotation":[
				0,
				0,
				-0.7071068286895752,
				0.7071067094802856
			],
			"scale":[
				0.15126104652881622,
				0.15126104652881622,
				0.15126103162765503
			],
			"translation":[
				6.969632148742676,
				1.0338199138641357,
				5.038679122924805
			]
		},
		{
			"name":"White chess side.011_16",
			"rotation":[
				0,
				0,
				-0.7071068286895752,
				0.7071067094802856
			],
			"scale":[
				0.15126104652881622,
				0.15126104652881622,
				0.15126103162765503
			],
			"translation":[
				6.984317779541016,
				1.0997800827026367,
				6.944230556488037
			]
		},
		{
			"children":[
				0,
				1,
				2,
				3,
				4,
				5,
				6,
				8,
				9
			],
			"name":"GLTF_SceneRootNode",
			"rotation":[
				0.70710688829422,
				0,
				0,
				0.7071066498756409
			]
		},
		{
			"children":[
				10
			],
			"name":"root"
		},
		{
			"children":[
				11
			],
			"name":"Sketchfab_model",
			"rotation":[
				-0.70710688829422,
				0,
				0,
				0.7071066498756409
			]
		}
	],
	"materials":[
		{
			"doubleSided":true,
			"extensions":{
				"KHR_materials_clearcoat":{
					"clearcoatFactor":1,
					"clearcoatRoughnessFactor":0.03211091458797455
				}
			},
			"name":"Chess_White",
			"pbrMetallicRoughness":{
				"baseColorFactor":[
					0.3108130097389221,
					0.2930789887905121,
					0.22268499433994293,
					1
				],
				"metallicFactor":0,
				"roughnessFactor":0.5
			}
		}
	],
	"meshes":[
		{
			"name":"Object_17",
			"primitives":[
				{
					"attributes":{
						"POSITION":0,
						"NORMAL":1,
						"TEXCOORD_0":2
					},
					"indices":3,
					"material":0
				}
			]
		}
	],
	"accessors":[
		{
			"bufferView":0,
			"componentType":5126,
			"count":12521,
			"max":[
				6.542906761169434,
				4.257293224334717,
				4.257292747497559
			],
			"min":[
				-8.420968055725098,
				-4.257294178009033,
				-4.257293224334717
			],
			"type":"VEC3"
		},
		{
			"bufferView":1,
			"componentType":5126,
			"count":12521,
			"type":"VEC3"
		},
		{
			"bufferView":2,
			"componentType":5126,
			"count":12521,
			"type":"VEC2"
		},
		{
			"bufferView":3,
			"componentType":5123,
			"count":69504,
			"type":"SCALAR"
		}
	],
	"bufferViews":[
		{
			"buffer":0,
			"byteLength":150252,
			"byteOffset":0,
			"target":34962
		},
		{
			"buffer":0,
			"byteLength":150252,
			"byteOffset":150252,
			"target":34962
		},
		{
			"buffer":0,
			"byteLength":100168,
			"byteOffset":300504,
			"target":34962
		},
		{
			"buffer":0,
			"byteLength":139008,
			"byteOffset":400672,
			"target":34963
		}
	],
	"buffers":[
		{
			"byteLength":539680,
			"uri":"scene.bin"
		}
	]
}
