{
	"asset":{
		"generator":"Khronos glTF Blender I/O v4.0.44",
		"version":"2.0"
	},
	"extensionsUsed":[
		"KHR_materials_clearcoat"
	],
	"scene":0,
	"scenes":[
		{
			"name":"Scene",
			"nodes":[
				15
			]
		}
	],
	"nodes":[
		{
			"name":"Black chess side.001_18",
			"rotation":[
				0.7071068286895752,
				-0.7071068286895752,
				0,
				1.1520234011186403e-07
			],
			"scale":[
				0.15126104652881622,
				0.15126104652881622,
				0.15126106142997742
			],
			"translation":[
				-1.0442990064620972,
				1.508640170097351,
				-7.028036117553711
			]
		},
		{
			"name":"Black chess side.007_24",
			"rotation":[
				0.7071068286895752,
				-0.7071068286895752,
				0,
				1.1520234011186403e-07
			],
			"scale":[
				0.15126104652881622,
				0.15126104652881622,
				0.15126106142997742
			],
			"translation":[
				4.971888542175293,
				1.033821940422058,
				-5.14659309387207
			]
		},
		{
			"name":"Black chess side.014_31",
			"rotation":[
				0.7071068286895752,
				-0.7071068286895752,
				0,
				1.1520234011186403e-07
			],
			"scale":[
				0.15126104652881622,
				0.15126104652881622,
				0.15126106142997742
			],
			"translation":[
				-7.077000617980957,
				1.0997763872146606,
				-7.052150249481201
			]
		},
		{
			"name":"Black chess side.015_32",
			"rotation":[
				0.7071068286895752,
				-0.7071068286895752,
				0,
				1.1520234011186403e-07
			],
			"scale":[
				0.15126104652881622,
				0.15126104652881622,
				0.15126106142997742
			],
			"translation":[
				6.982151508331299,
				1.1354442834854126,
				-7.052151679992676
			]
		},
		{
			"mesh":0,
			"name":"Object_13",
			"translation":[
				6.834694862365723,
				46.12968063354492,
				-34.02456283569336
			]
		},
		{
			"children":[
				4
			],
			"name":"Black chess side_4",
			"rotation":[
				0.7071068286895752,
				-0.7071068286895752,
				0,
				1.1520234011186403e-07
			],
			"scale":[
				0.15126104652881622,
				0.15126104652881622,
				0.15126106142997742
			],
			"translation":[
				6.977623462677002,
				1.0338231325149536,
				-5.146592617034912
			]
		},
		{
			"name":"Cube_3",
			"translation":[
				0,
				-0.41733357310295105,
				0
			]
		},
		{
			"name":"Plane.002_7",
			"rotation":[
				0,
				0,
				-0.7071067690849304,
				0.7071068286895752
			],
			"scale":[
				0.22414207458496094,
				0.22414207458496094,
				0.22414207458496094
			],
			"translation":[
				0.9522873163223267,
				2.1773176193237305,
				-6.857218265533447
			]
		},
		{
			"name":"Plane_2",
			"scale":[
				7.9386305809021,
				46.60742950439453,
				7.9386305809021
			],
			"translation":[
				0,
				0.01020124927163124,
				0
			]
		},
		{
			"name":"pPlane13.003_38",
			"rotation":[
				0,
				-0.7071068286895752,
				0.7071068286895752,
				1.1520232590100932e-07
			],
			"scale":[
				1.3003956079483032,
				1.3003953695297241,
				1.3003953695297241
			],
			"translation":[
				-4.903324604034424,
				1.5043706893920898,
				-6.996973037719727
			]
		},
		{
			"name":"pPlane13.004_39",
			"rotation":[
				0,
				-0.7071068286895752,
				0.7071068286895752,
				1.1520232590100932e-07
			],
			"scale":[
				1.3003956079483032,
				1.3003953695297241,
				1.3003953695297241
			],
			"translation":[
				-4.903324604034424,
				1.5043706893920898,
				-6.996973037719727
			]
		},
		{
			"name":"White chess side.013_34",
			"rotation":[
				0,
				0,
				-0.7071068286895752,
				0.7071067094802856
			],
			"scale":[
				0.15126104652881622,
				0.15126104652881622,
				0.15126103162765503
			],
			"translation":[
				-3.006452798843384,
				1.4827114343643188,
				-6.987786293029785
			]
		},
		{
			"name":"White chess side.014_35",
			"rotation":[
				0,
				0,
				-0.7071068286895752,
				0.7071067094802856
			],
			"scale":[
				0.15126104652881622,
				0.15126104652881622,
				0.15126103162765503
			],
			"translation":[
				2.9174182415008545,
				1.4827114343643188,
				-6.987786293029785
			]
		},
		{
			"children":[
				0,
				1,
				2,
				3,
				5,
				6,
				7,
				8,
				9,
				10,
				11,
				12
			],
			"name":"GLTF_SceneRootNode",
			"rotation":[
				0.70710688829422,
				0,
				0,
				0.7071066498756409
			]
		},
		{
			"children":[
				13
			],
			"name":"root"
		},
		{
			"children":[
				14
			],
			"name":"Sketchfab_model",
			"rotation":[
				-0.70710688829422,
				0,
				0,
				0.7071066498756409
			]
		}
	],
	"materials":[
		{
			"doubleSided":true,
			"extensions":{
				"KHR_materials_clearcoat":{
					"clearcoatFactor":0.8088240027427673,
					"clearcoatRoughnessFactor":0.4273221790790558
				}
			},
			"name":"Material.005",
			"pbrMetallicRoughness":{
				"baseColorFactor":[
					0.00424190005287528,
					0.00424190005287528,
					0.00424190005287528,
					1
				],
				"metallicFactor":0,
				"roughnessFactor":0.5
			}
		}
	],
	"meshes":[
		{
			"name":"Object_6",
			"primitives":[
				{
					"attributes":{
						"POSITION":0,
						"NORMAL":1,
						"TEXCOORD_0":2
					},
					"indices":3,
					"material":0
				}
			]
		}
	],
	"accessors":[
		{
			"bufferView":0,
			"componentType":5126,
			"count":12520,
			"max":[
				6.542928218841553,
				4.257457733154297,
				4.2573089599609375
			],
			"min":[
				-8.42094612121582,
				-4.257129669189453,
				-4.257277965545654
			],
			"type":"VEC3"
		},
		{
			"bufferView":1,
			"componentType":5126,
			"count":12520,
			"type":"VEC3"
		},
		{
			"bufferView":2,
			"componentType":5126,
			"count":12520,
			"type":"VEC2"
		},
		{
			"bufferView":3,
			"componentType":5123,
			"count":69504,
			"type":"SCALAR"
		}
	],
	"bufferViews":[
		{
			"buffer":0,
			"byteLength":150240,
			"byteOffset":0,
			"target":34962
		},
		{
			"buffer":0,
			"byteLength":150240,
			"byteOffset":150240,
			"target":34962
		},
		{
			"buffer":0,
			"byteLength":100160,
			"byteOffset":300480,
			"target":34962
		},
		{
			"buffer":0,
			"byteLength":139008,
			"byteOffset":400640,
			"target":34963
		}
	],
	"buffers":[
		{
			"byteLength":539648,
			"uri":"black-pawn.bin"
		}
	]
}
