{
	"asset":{
		"generator":"Khronos glTF Blender I/O v4.0.44",
		"version":"2.0"
	},
	"extensionsUsed":[
		"KHR_materials_clearcoat"
	],
	"scene":0,
	"scenes":[
		{
			"name":"Scene",
			"nodes":[
				6
			]
		}
	],
	"nodes":[
		{
			"name":"Cube_3",
			"translation":[
				0,
				-0.41733357310295105,
				0
			]
		},
		{
			"name":"Plane_2",
			"scale":[
				7.9386305809021,
				46.60742950439453,
				7.9386305809021
			],
			"translation":[
				0,
				0.01020124927163124,
				0
			]
		},
		{
			"mesh":0,
			"name":"Object_37",
			"translation":[
				7.270748615264893,
				-46.1739387512207,
				-45.908912658691406
			]
		},
		{
			"children":[
				2
			],
			"name":"White chess side.011_16",
			"rotation":[
				0,
				0,
				-0.7071068286895752,
				0.7071067094802856
			],
			"scale":[
				0.15126104652881622,
				0.15126104652881622,
				0.15126103162765503
			],
			"translation":[
				6.984317779541016,
				1.0997800827026367,
				6.944230556488037
			]
		},
		{
			"children":[
				0,
				1,
				3
			],
			"name":"GLTF_SceneRootNode",
			"rotation":[
				0.70710688829422,
				0,
				0,
				0.7071066498756409
			]
		},
		{
			"children":[
				4
			],
			"name":"root"
		},
		{
			"children":[
				5
			],
			"name":"Sketchfab_model",
			"rotation":[
				-0.70710688829422,
				0,
				0,
				0.7071066498756409
			]
		}
	],
	"materials":[
		{
			"doubleSided":true,
			"extensions":{
				"KHR_materials_clearcoat":{
					"clearcoatFactor":1,
					"clearcoatRoughnessFactor":0.03211091458797455
				}
			},
			"name":"Chess_White",
			"pbrMetallicRoughness":{
				"baseColorFactor":[
					0.3108130097389221,
					0.2930789887905121,
					0.22268499433994293,
					1
				],
				"metallicFactor":0,
				"roughnessFactor":0.5
			}
		}
	],
	"meshes":[
		{
			"name":"Object_18",
			"primitives":[
				{
					"attributes":{
						"POSITION":0,
						"NORMAL":1,
						"TEXCOORD_0":2
					},
					"indices":3,
					"material":0
				}
			]
		}
	],
	"accessors":[
		{
			"bufferView":0,
			"componentType":5126,
			"count":14286,
			"max":[
				6.989384174346924,
				4.288729667663574,
				4.252110004425049
			],
			"min":[
				-11.77743148803711,
				-4.2657365798950195,
				-4.302357196807861
			],
			"type":"VEC3"
		},
		{
			"bufferView":1,
			"componentType":5126,
			"count":14286,
			"type":"VEC3"
		},
		{
			"bufferView":2,
			"componentType":5126,
			"count":14286,
			"type":"VEC2"
		},
		{
			"bufferView":3,
			"componentType":5123,
			"count":80430,
			"type":"SCALAR"
		}
	],
	"bufferViews":[
		{
			"buffer":0,
			"byteLength":171432,
			"byteOffset":0,
			"target":34962
		},
		{
			"buffer":0,
			"byteLength":171432,
			"byteOffset":171432,
			"target":34962
		},
		{
			"buffer":0,
			"byteLength":114288,
			"byteOffset":342864,
			"target":34962
		},
		{
			"buffer":0,
			"byteLength":160860,
			"byteOffset":457152,
			"target":34963
		}
	],
	"buffers":[
		{
			"byteLength":618012,
			"uri":"scene.bin"
		}
	]
}
