{
	"asset":{
		"generator":"Khronos glTF Blender I/O v4.0.44",
		"version":"2.0"
	},
	"extensionsUsed":[
		"KHR_materials_clearcoat"
	],
	"scene":0,
	"scenes":[
		{
			"name":"Scene",
			"nodes":[
				18
			]
		}
	],
	"nodes":[
		{
			"mesh":0,
			"name":"Object_41"
		},
		{
			"children":[
				0
			],
			"name":"Black chess side.001_18",
			"rotation":[
				0.7071068286895752,
				-0.7071068286895752,
				0,
				1.1520234011186403e-07
			],
			"scale":[
				0.15126104652881622,
				0.15126104652881622,
				0.15126106142997742
			],
			"translation":[
				-1.0442990064620972,
				1.508640170097351,
				-7.028036594390869
			]
		},
		{
			"mesh":1,
			"name":"Object_43"
		},
		{
			"children":[
				2
			],
			"name":"Black chess side.002_19",
			"rotation":[
				0.7071068286895752,
				-0.7071068286895752,
				0,
				1.1520234011186403e-07
			],
			"scale":[
				0.15126104652881622,
				0.15126104652881622,
				0.15126106142997742
			],
			"translation":[
				-1.044302225112915,
				2.825664520263672,
				-7.0280351638793945
			]
		},
		{
			"mesh":2,
			"name":"Object_45"
		},
		{
			"children":[
				4
			],
			"name":"Black chess side.003_20",
			"rotation":[
				0.7071068286895752,
				-0.7071068286895752,
				0,
				1.1520234011186403e-07
			],
			"scale":[
				0.15126104652881622,
				0.15126104652881622,
				0.15126106142997742
			],
			"translation":[
				-1.044302225112915,
				3.012347936630249,
				-7.028037071228027
			]
		},
		{
			"mesh":3,
			"name":"Object_47"
		},
		{
			"children":[
				6
			],
			"name":"Black chess side.004_21",
			"rotation":[
				0.7071068286895752,
				-0.7071068286895752,
				0,
				1.1520234011186403e-07
			],
			"scale":[
				0.15126104652881622,
				0.15126104652881622,
				0.15126106142997742
			],
			"translation":[
				-1.0443027019500732,
				2.8235220909118652,
				-7.028037071228027
			]
		},
		{
			"mesh":4,
			"name":"Object_49"
		},
		{
			"children":[
				8
			],
			"name":"Black chess side.005_22",
			"rotation":[
				0.7071068286895752,
				-0.7071068286895752,
				0,
				1.1520234011186403e-07
			],
			"scale":[
				0.15126104652881622,
				0.15126104652881622,
				0.15126106142997742
			],
			"translation":[
				-1.0443024635314941,
				2.8235068321228027,
				-7.028035640716553
			]
		},
		{
			"mesh":5,
			"name":"Object_51"
		},
		{
			"children":[
				10
			],
			"name":"Black chess side.006_23",
			"rotation":[
				0.7071068286895752,
				-0.7071068286895752,
				0,
				1.1520234011186403e-07
			],
			"scale":[
				0.15126104652881622,
				0.15126104652881622,
				0.15126106142997742
			],
			"translation":[
				-1.0443068742752075,
				3.0427474975585938,
				-7.02803897857666
			]
		},
		{
			"name":"Black chess side.014_31",
			"rotation":[
				0.7071068286895752,
				-0.7071068286895752,
				0,
				1.1520234011186403e-07
			],
			"scale":[
				0.15126104652881622,
				0.15126104652881622,
				0.15126106142997742
			],
			"translation":[
				-7.077000617980957,
				1.0997763872146606,
				-7.052150726318359
			]
		},
		{
			"name":"Black chess side.015_32",
			"rotation":[
				0.7071068286895752,
				-0.7071068286895752,
				0,
				1.1520234011186403e-07
			],
			"scale":[
				0.15126104652881622,
				0.15126104652881622,
				0.15126106142997742
			],
			"translation":[
				6.982151508331299,
				1.1354442834854126,
				-7.052152156829834
			]
		},
		{
			"name":"Cube_3",
			"translation":[
				0,
				-0.41733360290527344,
				0
			]
		},
		{
			"name":"Plane_2",
			"scale":[
				7.9386305809021,
				46.60742950439453,
				7.9386305809021
			],
			"translation":[
				0,
				0.010201215744018555,
				0
			]
		},
		{
			"children":[
				1,
				3,
				5,
				7,
				9,
				11,
				12,
				13,
				14,
				15
			],
			"name":"GLTF_SceneRootNode",
			"rotation":[
				0.70710688829422,
				0,
				0,
				0.7071066498756409
			]
		},
		{
			"children":[
				16
			],
			"name":"root"
		},
		{
			"children":[
				17
			],
			"name":"Sketchfab_model",
			"rotation":[
				-0.70710688829422,
				0,
				0,
				0.7071066498756409
			],
			"translation":[
				1.0288405418395996,
				-1.5024336576461792,
				7.022243976593018
			]
		}
	],
	"materials":[
		{
			"doubleSided":true,
			"extensions":{
				"KHR_materials_clearcoat":{
					"clearcoatFactor":0.8088240027427673,
					"clearcoatRoughnessFactor":0.4273221790790558
				}
			},
			"name":"Material.005",
			"pbrMetallicRoughness":{
				"baseColorFactor":[
					0.04296012595295906,
					0.03703853115439415,
					0.03436810150742531,
					1
				],
				"metallicFactor":0,
				"roughnessFactor":0.5
			}
		}
	],
	"meshes":[
		{
			"name":"Object_20",
			"primitives":[
				{
					"attributes":{
						"POSITION":0,
						"NORMAL":1,
						"TEXCOORD_0":2
					},
					"indices":3,
					"material":0
				}
			]
		},
		{
			"name":"Object_21",
			"primitives":[
				{
					"attributes":{
						"POSITION":4,
						"NORMAL":5,
						"TEXCOORD_0":6
					},
					"indices":7,
					"material":0
				}
			]
		},
		{
			"name":"Object_22",
			"primitives":[
				{
					"attributes":{
						"POSITION":8,
						"NORMAL":9,
						"TEXCOORD_0":10
					},
					"indices":11,
					"material":0
				}
			]
		},
		{
			"name":"Object_23",
			"primitives":[
				{
					"attributes":{
						"POSITION":12,
						"NORMAL":13,
						"TEXCOORD_0":14
					},
					"indices":15,
					"material":0
				}
			]
		},
		{
			"name":"Object_24",
			"primitives":[
				{
					"attributes":{
						"POSITION":16,
						"NORMAL":17,
						"TEXCOORD_0":18
					},
					"indices":19,
					"material":0
				}
			]
		},
		{
			"name":"Object_25",
			"primitives":[
				{
					"attributes":{
						"POSITION":20,
						"NORMAL":21,
						"TEXCOORD_0":22
					},
					"indices":23,
					"material":0
				}
			]
		}
	],
	"accessors":[
		{
			"bufferView":0,
			"componentType":5126,
			"count":13941,
			"max":[
				9.731671333312988,
				4.452098846435547,
				4.452078342437744
			],
			"min":[
				-8.692707061767578,
				-4.452060222625732,
				-4.452085494995117
			],
			"type":"VEC3"
		},
		{
			"bufferView":1,
			"componentType":5126,
			"count":13941,
			"type":"VEC3"
		},
		{
			"bufferView":2,
			"componentType":5126,
			"count":13941,
			"type":"VEC2"
		},
		{
			"bufferView":3,
			"componentType":5123,
			"count":75264,
			"type":"SCALAR"
		},
		{
			"bufferView":4,
			"componentType":5126,
			"count":341,
			"max":[
				0.01425933837890625,
				0.776453971862793,
				0.7764620780944824
			],
			"min":[
				-0.03342247009277344,
				-0.7764558792114258,
				-0.776451587677002
			],
			"type":"VEC3"
		},
		{
			"bufferView":5,
			"componentType":5126,
			"count":341,
			"type":"VEC3"
		},
		{
			"bufferView":6,
			"componentType":5126,
			"count":341,
			"type":"VEC2"
		},
		{
			"bufferView":7,
			"componentType":5123,
			"count":1536,
			"type":"SCALAR"
		},
		{
			"bufferView":8,
			"componentType":5126,
			"count":2230,
			"max":[
				1.248438835144043,
				0.8196325302124023,
				0.8196263313293457
			],
			"min":[
				-1.509317398071289,
				-0.8196344375610352,
				-0.8196406364440918
			],
			"type":"VEC3"
		},
		{
			"bufferView":9,
			"componentType":5126,
			"count":2230,
			"type":"VEC3"
		},
		{
			"bufferView":10,
			"componentType":5126,
			"count":2230,
			"type":"VEC2"
		},
		{
			"bufferView":11,
			"componentType":5123,
			"count":11904,
			"type":"SCALAR"
		},
		{
			"bufferView":12,
			"componentType":5126,
			"count":2033,
			"max":[
				9.72747802734375e-05,
				0.669227123260498,
				0.6692237854003906
			],
			"min":[
				9.250640869140625e-05,
				-0.6692357063293457,
				-0.6692371368408203
			],
			"type":"VEC3"
		},
		{
			"bufferView":13,
			"componentType":5126,
			"count":2033,
			"type":"VEC3"
		},
		{
			"bufferView":14,
			"componentType":5126,
			"count":2033,
			"type":"VEC2"
		},
		{
			"bufferView":15,
			"componentType":5123,
			"count":9600,
			"type":"SCALAR"
		},
		{
			"bufferView":16,
			"componentType":5126,
			"count":112,
			"max":[
				-5.7220458984375e-06,
				0.9940924644470215,
				0.9940967559814453
			],
			"min":[
				-1.049041748046875e-05,
				-0.9940972328186035,
				-0.9940929412841797
			],
			"type":"VEC3"
		},
		{
			"bufferView":17,
			"componentType":5126,
			"count":112,
			"type":"VEC3"
		},
		{
			"bufferView":18,
			"componentType":5126,
			"count":112,
			"type":"VEC2"
		},
		{
			"bufferView":19,
			"componentType":5123,
			"count":480,
			"type":"SCALAR"
		},
		{
			"bufferView":20,
			"componentType":5126,
			"count":3776,
			"max":[
				0.2728996276855469,
				1.2475576400756836,
				0.26593971252441406
			],
			"min":[
				-0.27286720275878906,
				-1.2476205825805664,
				-0.2659797668457031
			],
			"type":"VEC3"
		},
		{
			"bufferView":21,
			"componentType":5126,
			"count":3776,
			"type":"VEC3"
		},
		{
			"bufferView":22,
			"componentType":5126,
			"count":3776,
			"type":"VEC2"
		},
		{
			"bufferView":23,
			"componentType":5123,
			"count":19968,
			"type":"SCALAR"
		}
	],
	"bufferViews":[
		{
			"buffer":0,
			"byteLength":167292,
			"byteOffset":0,
			"target":34962
		},
		{
			"buffer":0,
			"byteLength":167292,
			"byteOffset":167292,
			"target":34962
		},
		{
			"buffer":0,
			"byteLength":111528,
			"byteOffset":334584,
			"target":34962
		},
		{
			"buffer":0,
			"byteLength":150528,
			"byteOffset":446112,
			"target":34963
		},
		{
			"buffer":0,
			"byteLength":4092,
			"byteOffset":596640,
			"target":34962
		},
		{
			"buffer":0,
			"byteLength":4092,
			"byteOffset":600732,
			"target":34962
		},
		{
			"buffer":0,
			"byteLength":2728,
			"byteOffset":604824,
			"target":34962
		},
		{
			"buffer":0,
			"byteLength":3072,
			"byteOffset":607552,
			"target":34963
		},
		{
			"buffer":0,
			"byteLength":26760,
			"byteOffset":610624,
			"target":34962
		},
		{
			"buffer":0,
			"byteLength":26760,
			"byteOffset":637384,
			"target":34962
		},
		{
			"buffer":0,
			"byteLength":17840,
			"byteOffset":664144,
			"target":34962
		},
		{
			"buffer":0,
			"byteLength":23808,
			"byteOffset":681984,
			"target":34963
		},
		{
			"buffer":0,
			"byteLength":24396,
			"byteOffset":705792,
			"target":34962
		},
		{
			"buffer":0,
			"byteLength":24396,
			"byteOffset":730188,
			"target":34962
		},
		{
			"buffer":0,
			"byteLength":16264,
			"byteOffset":754584,
			"target":34962
		},
		{
			"buffer":0,
			"byteLength":19200,
			"byteOffset":770848,
			"target":34963
		},
		{
			"buffer":0,
			"byteLength":1344,
			"byteOffset":790048,
			"target":34962
		},
		{
			"buffer":0,
			"byteLength":1344,
			"byteOffset":791392,
			"target":34962
		},
		{
			"buffer":0,
			"byteLength":896,
			"byteOffset":792736,
			"target":34962
		},
		{
			"buffer":0,
			"byteLength":960,
			"byteOffset":793632,
			"target":34963
		},
		{
			"buffer":0,
			"byteLength":45312,
			"byteOffset":794592,
			"target":34962
		},
		{
			"buffer":0,
			"byteLength":45312,
			"byteOffset":839904,
			"target":34962
		},
		{
			"buffer":0,
			"byteLength":30208,
			"byteOffset":885216,
			"target":34962
		},
		{
			"buffer":0,
			"byteLength":39936,
			"byteOffset":915424,
			"target":34963
		}
	],
	"buffers":[
		{
			"byteLength":955360,
			"uri":"scene.bin"
		}
	]
}
