{
	"asset":{
		"generator":"Khronos glTF Blender I/O v4.0.44",
		"version":"2.0"
	},
	"extensionsUsed":[
		"KHR_materials_clearcoat"
	],
	"scene":0,
	"scenes":[
		{
			"name":"Scene",
			"nodes":[
				1,
				2,
				3,
				4
			]
		}
	],
	"nodes":[
		{
			"mesh":0,
			"name":"Object_19",
			"translation":[
				9.714006423950195,
				-4.248588562011719,
				30.59317398071289
			]
		},
		{
			"children":[
				0
			],
			"name":"Plane.002_7",
			"rotation":[
				0,
				0,
				-0.7071067690849304,
				0.7071068286895752
			],
			"scale":[
				0.22414207458496094,
				0.22414207458496094,
				0.22414207458496094
			],
			"translation":[
				0.9522873163223267,
				2.1773176193237305,
				-6.857218265533447
			]
		},
		{
			"name":"Black chess side.001_18",
			"rotation":[
				0.7071068286895752,
				-0.7071068286895752,
				0,
				1.1520234011186403e-07
			],
			"scale":[
				0.15126104652881622,
				0.15126104652881622,
				0.15126106142997742
			],
			"translation":[
				-1.0442990064620972,
				1.508640170097351,
				-7.028036117553711
			]
		},
		{
			"name":"Black chess side.009_26",
			"rotation":[
				0.7071068286895752,
				-0.7071068286895752,
				0,
				1.1520234011186403e-07
			],
			"scale":[
				0.15126104652881622,
				0.15126104652881622,
				0.15126106142997742
			],
			"translation":[
				0.9604992270469666,
				1.0338218212127686,
				-5.146592617034912
			]
		},
		{
			"name":"Black chess side.010_27",
			"rotation":[
				0.7071068286895752,
				-0.7071068286895752,
				0,
				1.1520234011186403e-07
			],
			"scale":[
				0.15126104652881622,
				0.15126104652881622,
				0.15126106142997742
			],
			"translation":[
				-1.045213222503662,
				1.0338220596313477,
				-5.14659309387207
			]
		}
	],
	"materials":[
		{
			"doubleSided":true,
			"extensions":{
				"KHR_materials_clearcoat":{
					"clearcoatFactor":0.8088240027427673,
					"clearcoatRoughnessFactor":0.4273221790790558
				}
			},
			"name":"Material.005",
			"pbrMetallicRoughness":{
				"baseColorFactor":[
					0.00424190005287528,
					0.00424190005287528,
					0.00424190005287528,
					1
				],
				"metallicFactor":0,
				"roughnessFactor":0.5
			}
		}
	],
	"meshes":[
		{
			"name":"Object_9",
			"primitives":[
				{
					"attributes":{
						"POSITION":0,
						"NORMAL":1,
						"TEXCOORD_0":2
					},
					"indices":3,
					"material":0
				}
			]
		}
	],
	"accessors":[
		{
			"bufferView":0,
			"componentType":5126,
			"count":18601,
			"max":[
				9.619464874267578,
				3.50335431098938,
				3.5035359859466553
			],
			"min":[
				-6.436874866485596,
				-3.5108206272125244,
				-3.510638952255249
			],
			"type":"VEC3"
		},
		{
			"bufferView":1,
			"componentType":5126,
			"count":18601,
			"type":"VEC3"
		},
		{
			"bufferView":2,
			"componentType":5126,
			"count":18601,
			"type":"VEC2"
		},
		{
			"bufferView":3,
			"componentType":5123,
			"count":105864,
			"type":"SCALAR"
		}
	],
	"bufferViews":[
		{
			"buffer":0,
			"byteLength":223212,
			"byteOffset":0,
			"target":34962
		},
		{
			"buffer":0,
			"byteLength":223212,
			"byteOffset":223212,
			"target":34962
		},
		{
			"buffer":0,
			"byteLength":148808,
			"byteOffset":446424,
			"target":34962
		},
		{
			"buffer":0,
			"byteLength":211728,
			"byteOffset":595232,
			"target":34963
		}
	],
	"buffers":[
		{
			"byteLength":806960,
			"uri":"scene.bin"
		}
	]
}
