{
	"asset":{
		"generator":"Khronos glTF Blender I/O v4.0.44",
		"version":"2.0"
	},
	"extensionsUsed":[
		"KHR_materials_clearcoat"
	],
	"scene":0,
	"scenes":[
		{
			"name":"Scene",
			"nodes":[
				9
			]
		}
	],
	"nodes":[
		{
			"name":"Black chess side.014_31",
			"rotation":[
				0.7071068286895752,
				-0.7071068286895752,
				0,
				1.1520234011186403e-07
			],
			"scale":[
				0.15126104652881622,
				0.15126104652881622,
				0.15126106142997742
			],
			"translation":[
				-7.077000617980957,
				1.0997763872146606,
				-7.052150249481201
			]
		},
		{
			"name":"Black chess side.015_32",
			"rotation":[
				0.7071068286895752,
				-0.7071068286895752,
				0,
				1.1520234011186403e-07
			],
			"scale":[
				0.15126104652881622,
				0.15126104652881622,
				0.15126106142997742
			],
			"translation":[
				6.982151508331299,
				1.1354442834854126,
				-7.052151679992676
			]
		},
		{
			"name":"Cube_3",
			"translation":[
				0,
				-0.41733357310295105,
				0
			]
		},
		{
			"mesh":0,
			"name":"Object_19"
		},
		{
			"children":[
				3
			],
			"name":"Plane.002_7",
			"rotation":[
				0,
				0,
				-0.7071067690849304,
				0.7071068286895752
			],
			"scale":[
				0.22414207458496094,
				0.22414207458496094,
				0.22414207458496094
			]
		},
		{
			"name":"Plane_2",
			"scale":[
				7.9386305809021,
				46.60742950439453,
				7.9386305809021
			],
			"translation":[
				0,
				0.01020124927163124,
				0
			]
		},
		{
			"name":"White chess side.014_35",
			"rotation":[
				0,
				0,
				-0.7071068286895752,
				0.7071067094802856
			],
			"scale":[
				0.15126104652881622,
				0.15126104652881622,
				0.15126103162765503
			]
		},
		{
			"children":[
				0,
				1,
				2,
				4,
				5,
				6
			],
			"name":"GLTF_SceneRootNode",
			"rotation":[
				0.70710688829422,
				0,
				0,
				0.7071066498756409
			]
		},
		{
			"children":[
				7
			],
			"name":"root"
		},
		{
			"children":[
				8
			],
			"name":"Sketchfab_model",
			"rotation":[
				-0.70710688829422,
				0,
				0,
				0.7071066498756409
			]
		}
	],
	"materials":[
		{
			"doubleSided":true,
			"extensions":{
				"KHR_materials_clearcoat":{
					"clearcoatFactor":0.8088240027427673,
					"clearcoatRoughnessFactor":0.4273221790790558
				}
			},
			"name":"Material.005",
			"pbrMetallicRoughness":{
				"baseColorFactor":[
					0.04296012595295906,
					0.03703853115439415,
					0.03436810150742531,
					1
				],
				"metallicFactor":0,
				"roughnessFactor":0.5
			}
		}
	],
	"meshes":[
		{
			"name":"Object_9",
			"primitives":[
				{
					"attributes":{
						"POSITION":0,
						"NORMAL":1,
						"TEXCOORD_0":2
					},
					"indices":3,
					"material":0
				}
			]
		}
	],
	"accessors":[
		{
			"bufferView":0,
			"componentType":5126,
			"count":18601,
			"max":[
				9.619464874267578,
				3.50335431098938,
				3.5035359859466553
			],
			"min":[
				-6.436874866485596,
				-3.5108206272125244,
				-3.510638952255249
			],
			"type":"VEC3"
		},
		{
			"bufferView":1,
			"componentType":5126,
			"count":18601,
			"type":"VEC3"
		},
		{
			"bufferView":2,
			"componentType":5126,
			"count":18601,
			"type":"VEC2"
		},
		{
			"bufferView":3,
			"componentType":5123,
			"count":105864,
			"type":"SCALAR"
		}
	],
	"bufferViews":[
		{
			"buffer":0,
			"byteLength":223212,
			"byteOffset":0,
			"target":34962
		},
		{
			"buffer":0,
			"byteLength":223212,
			"byteOffset":223212,
			"target":34962
		},
		{
			"buffer":0,
			"byteLength":148808,
			"byteOffset":446424,
			"target":34962
		},
		{
			"buffer":0,
			"byteLength":211728,
			"byteOffset":595232,
			"target":34963
		}
	],
	"buffers":[
		{
			"byteLength":806960,
			"uri":"scene.bin"
		}
	]
}
