{
	"asset":{
		"generator":"Khronos glTF Blender I/O v4.0.44",
		"version":"2.0"
	},
	"extensionsUsed":[
		"KHR_materials_clearcoat"
	],
	"scene":0,
	"scenes":[
		{
			"name":"Scene",
			"nodes":[
				0,
				1,
				3
			]
		}
	],
	"nodes":[
		{
			"name":"Black chess side.001_18",
			"rotation":[
				0.7071068286895752,
				-0.7071068286895752,
				0,
				1.1520234011186403e-07
			],
			"scale":[
				0.15126104652881622,
				0.15126104652881622,
				0.15126106142997742
			],
			"translation":[
				-1.0442990064620972,
				1.508640170097351,
				-7.028036117553711
			]
		},
		{
			"name":"Black chess side.010_27",
			"rotation":[
				0.7071068286895752,
				-0.7071068286895752,
				0,
				1.1520234011186403e-07
			],
			"scale":[
				0.15126104652881622,
				0.15126104652881622,
				0.15126106142997742
			],
			"translation":[
				-1.045213222503662,
				1.0338220596313477,
				-5.14659309387207
			]
		},
		{
			"mesh":0,
			"name":"Object_73",
			"translation":[
				9.80233097076416,
				19.87592315673828,
				46.19686508178711
			]
		},
		{
			"children":[
				2
			],
			"name":"White chess side.013_34",
			"rotation":[
				0,
				0,
				-0.7071068286895752,
				0.7071067094802856
			],
			"scale":[
				0.15126104652881622,
				0.15126104652881622,
				0.15126103162765503
			],
			"translation":[
				-3.006452798843384,
				1.4827114343643188,
				-6.987786293029785
			]
		}
	],
	"materials":[
		{
			"doubleSided":true,
			"extensions":{
				"KHR_materials_clearcoat":{
					"clearcoatFactor":0.8088240027427673,
					"clearcoatRoughnessFactor":0.4273221790790558
				}
			},
			"name":"Material.005",
			"pbrMetallicRoughness":{
				"baseColorFactor":[
					0.00424190005287528,
					0.00424190005287528,
					0.00424190005287528,
					1
				],
				"metallicFactor":0,
				"roughnessFactor":0.5
			}
		}
	],
	"meshes":[
		{
			"name":"Object_36",
			"primitives":[
				{
					"attributes":{
						"POSITION":0,
						"NORMAL":1,
						"TEXCOORD_0":2
					},
					"indices":3,
					"material":0
				}
			]
		}
	],
	"accessors":[
		{
			"bufferView":0,
			"componentType":5126,
			"count":15073,
			"max":[
				9.623040199279785,
				4.226701736450195,
				4.226701736450195
			],
			"min":[
				-10.129584312438965,
				-4.226701736450195,
				-4.226701736450195
			],
			"type":"VEC3"
		},
		{
			"bufferView":1,
			"componentType":5126,
			"count":15073,
			"type":"VEC3"
		},
		{
			"bufferView":2,
			"componentType":5126,
			"count":15073,
			"type":"VEC2"
		},
		{
			"bufferView":3,
			"componentType":5123,
			"count":78210,
			"type":"SCALAR"
		}
	],
	"bufferViews":[
		{
			"buffer":0,
			"byteLength":180876,
			"byteOffset":0,
			"target":34962
		},
		{
			"buffer":0,
			"byteLength":180876,
			"byteOffset":180876,
			"target":34962
		},
		{
			"buffer":0,
			"byteLength":120584,
			"byteOffset":361752,
			"target":34962
		},
		{
			"buffer":0,
			"byteLength":156420,
			"byteOffset":482336,
			"target":34963
		}
	],
	"buffers":[
		{
			"byteLength":638756,
			"uri":"scene.bin"
		}
	]
}
