{
	"asset":{
		"generator":"Khronos glTF Blender I/O v4.0.44",
		"version":"2.0"
	},
	"extensionsUsed":[
		"KHR_materials_clearcoat"
	],
	"scene":0,
	"scenes":[
		{
			"name":"Scene",
			"nodes":[
				16
			]
		}
	],
	"nodes":[
		{
			"name":"Black chess side.001_18",
			"rotation":[
				0.7071068286895752,
				-0.7071068286895752,
				0,
				1.1520234011186403e-07
			],
			"scale":[
				0.15126104652881622,
				0.15126104652881622,
				0.15126106142997742
			]
		},
		{
			"name":"Black chess side.002_19",
			"rotation":[
				0.7071068286895752,
				-0.7071068286895752,
				0,
				1.1520234011186403e-07
			],
			"scale":[
				0.15126104652881622,
				0.15126104652881622,
				0.15126106142997742
			]
		},
		{
			"name":"Black chess side.003_20",
			"rotation":[
				0.7071068286895752,
				-0.7071068286895752,
				0,
				1.1520234011186403e-07
			],
			"scale":[
				0.15126104652881622,
				0.15126104652881622,
				0.15126106142997742
			]
		},
		{
			"name":"Black chess side.004_21",
			"rotation":[
				0.7071068286895752,
				-0.7071068286895752,
				0,
				1.1520234011186403e-07
			],
			"scale":[
				0.15126104652881622,
				0.15126104652881622,
				0.15126106142997742
			]
		},
		{
			"name":"Black chess side.005_22",
			"rotation":[
				0.7071068286895752,
				-0.7071068286895752,
				0,
				1.1520234011186403e-07
			],
			"scale":[
				0.15126104652881622,
				0.15126104652881622,
				0.15126106142997742
			]
		},
		{
			"name":"Black chess side.006_23",
			"rotation":[
				0.7071068286895752,
				-0.7071068286895752,
				0,
				1.1520234011186403e-07
			],
			"scale":[
				0.15126104652881622,
				0.15126104652881622,
				0.15126106142997742
			]
		},
		{
			"name":"Black chess side.014_31",
			"rotation":[
				0.7071068286895752,
				-0.7071068286895752,
				0,
				1.1520234011186403e-07
			],
			"scale":[
				0.15126104652881622,
				0.15126104652881622,
				0.15126106142997742
			],
			"translation":[
				-7.077000617980957,
				1.0997763872146606,
				-7.052150249481201
			]
		},
		{
			"name":"Black chess side.015_32",
			"rotation":[
				0.7071068286895752,
				-0.7071068286895752,
				0,
				1.1520234011186403e-07
			],
			"scale":[
				0.15126104652881622,
				0.15126104652881622,
				0.15126106142997742
			],
			"translation":[
				6.982151508331299,
				1.1354442834854126,
				-7.052151679992676
			]
		},
		{
			"name":"Cube_3",
			"translation":[
				0,
				-0.41733357310295105,
				0
			]
		},
		{
			"name":"Plane_2",
			"scale":[
				7.9386305809021,
				46.60742950439453,
				7.9386305809021
			],
			"translation":[
				0,
				0.01020124927163124,
				0
			]
		},
		{
			"name":"pPlane13.003_38",
			"rotation":[
				0,
				-0.7071068286895752,
				0.7071068286895752,
				1.1520232590100932e-07
			],
			"scale":[
				1.3003956079483032,
				1.3003953695297241,
				1.3003953695297241
			],
			"translation":[
				-4.903324604034424,
				1.5043706893920898,
				-6.996973037719727
			]
		},
		{
			"name":"pPlane13.004_39",
			"rotation":[
				0,
				-0.7071068286895752,
				0.7071068286895752,
				1.1520232590100932e-07
			],
			"scale":[
				1.3003956079483032,
				1.3003953695297241,
				1.3003953695297241
			],
			"translation":[
				-4.903324604034424,
				1.5043706893920898,
				-6.996973037719727
			]
		},
		{
			"mesh":0,
			"name":"Object_73"
		},
		{
			"children":[
				12
			],
			"name":"White chess side.013_34",
			"rotation":[
				0,
				0,
				-0.7071068286895752,
				0.7071067094802856
			],
			"scale":[
				0.15126104652881622,
				0.15126104652881622,
				0.15126103162765503
			]
		},
		{
			"children":[
				0,
				1,
				2,
				3,
				4,
				5,
				6,
				7,
				8,
				9,
				10,
				11,
				13
			],
			"name":"GLTF_SceneRootNode",
			"rotation":[
				0.70710688829422,
				0,
				0,
				0.7071066498756409
			]
		},
		{
			"children":[
				14
			],
			"name":"root"
		},
		{
			"children":[
				15
			],
			"name":"Sketchfab_model",
			"rotation":[
				-0.70710688829422,
				0,
				0,
				0.7071066498756409
			]
		}
	],
	"materials":[
		{
			"doubleSided":true,
			"extensions":{
				"KHR_materials_clearcoat":{
					"clearcoatFactor":0.8088240027427673,
					"clearcoatRoughnessFactor":0.4273221790790558
				}
			},
			"name":"Material.005",
			"pbrMetallicRoughness":{
				"baseColorFactor":[
					0.04296012595295906,
					0.03703853115439415,
					0.03436810150742531,
					1
				],
				"metallicFactor":0,
				"roughnessFactor":0.5
			}
		}
	],
	"meshes":[
		{
			"name":"Object_36",
			"primitives":[
				{
					"attributes":{
						"POSITION":0,
						"NORMAL":1,
						"TEXCOORD_0":2
					},
					"indices":3,
					"material":0
				}
			]
		}
	],
	"accessors":[
		{
			"bufferView":0,
			"componentType":5126,
			"count":15073,
			"max":[
				9.623040199279785,
				4.226701736450195,
				4.226701736450195
			],
			"min":[
				-10.129584312438965,
				-4.226701736450195,
				-4.226701736450195
			],
			"type":"VEC3"
		},
		{
			"bufferView":1,
			"componentType":5126,
			"count":15073,
			"type":"VEC3"
		},
		{
			"bufferView":2,
			"componentType":5126,
			"count":15073,
			"type":"VEC2"
		},
		{
			"bufferView":3,
			"componentType":5123,
			"count":78210,
			"type":"SCALAR"
		}
	],
	"bufferViews":[
		{
			"buffer":0,
			"byteLength":180876,
			"byteOffset":0,
			"target":34962
		},
		{
			"buffer":0,
			"byteLength":180876,
			"byteOffset":180876,
			"target":34962
		},
		{
			"buffer":0,
			"byteLength":120584,
			"byteOffset":361752,
			"target":34962
		},
		{
			"buffer":0,
			"byteLength":156420,
			"byteOffset":482336,
			"target":34963
		}
	],
	"buffers":[
		{
			"byteLength":638756,
			"uri":"scene.bin"
		}
	]
}
